<svg width="16" height="16" viewBox="0 0 16 16" fill="none" xmlns="http://www.w3.org/2000/svg">
<path d="M13.2912 2.70898C13.1486 2.56641 12.8951 2.56641 12.7525 2.70898L8.00007 7.46146L3.2476 2.70898C3.10502 2.56641 2.85156 2.56641 2.70898 2.70898C2.56641 2.85156 2.56641 3.10502 2.70898 3.2476L7.46146 8.00007L2.70898 12.7525C2.56641 12.8951 2.56641 13.1486 2.70898 13.2912C2.78819 13.3704 2.88324 13.4021 2.97829 13.4021C3.07334 13.4021 3.16839 13.3704 3.2476 13.2912L8.00007 8.53868L12.7525 13.2912C12.8318 13.3704 12.9268 13.4021 13.0219 13.4021C13.1169 13.4021 13.212 13.3704 13.2912 13.2912C13.4337 13.1486 13.4337 12.8951 13.2912 12.7525L8.53868 8.00007L13.2912 3.2476C13.4337 3.10502 13.4337 2.8674 13.2912 2.70898Z" fill="#000"/>
</svg>
